<svg width="40" height="40" viewBox="0 0 40 40" fill="none" xmlns="http://www.w3.org/2000/svg">
<g clip-path="url(#clip0_36_1156)">
<path fill-rule="evenodd" clip-rule="evenodd" d="M20 2.08369C10.0376 2.08369 1.83381 11.4054 1.83381 22.7253C1.83381 24.6082 2.06012 26.4812 2.50664 28.2922H14.2747V30.3759H1.15547L0.951408 29.6518C0.320294 27.4122 0 25.0754 0 22.7253C0 10.2546 9.02484 0 20 0C30.9752 0 40 10.2546 40 22.7253C40 24.9465 39.7133 27.1549 39.1496 29.2812L38.9566 30.0091L25.8972 30.269L25.8651 28.1856L37.5739 27.9526C37.9668 26.247 38.1662 24.4906 38.1662 22.7253C38.1662 11.4054 29.9624 2.08369 20 2.08369Z" fill="#FCFCFC"/>
<path d="M36.4707 33.0543H3.83723C3.38401 33.0543 3.0166 33.4718 3.0166 33.9868C3.0166 34.5018 3.38401 34.9192 3.83723 34.9192H36.4707C36.9239 34.9192 37.2913 34.5018 37.2913 33.9868C37.2913 33.4718 36.9239 33.0543 36.4707 33.0543Z" fill="#FCFCFC"/>
<path d="M7.55822 38.136H19.057V40.0009H7.4948C7.09595 40.0009 6.77197 39.6328 6.77197 39.1796V39.0285C6.77197 38.5354 7.12422 38.136 7.55746 38.136H7.55822Z" fill="#FCFCFC"/>
<path d="M32.693 40H20.9436V38.1351H32.6296C33.0636 38.1351 33.415 38.5353 33.415 39.0276V39.1787C33.415 39.6319 33.0911 40 32.6922 40H32.693Z" fill="#FCFCFC"/>
<path d="M20.0008 11.6887L11.7334 18.6343H14.0127V38.5067H19.0572V34.9193H20.9429V38.5067H25.9225V18.6343H28.2667L20.0008 11.6887ZM17.4106 38.0552H15.9099V35.0009H17.4106V38.0552ZM17.4106 31.8111H15.9099V28.7567H17.4106V31.8111ZM17.4106 26.7685H15.9099V23.7142H17.4106V26.7685ZM20.7718 31.8111H19.2711V28.7567H20.7718V31.8111ZM20.9109 26.7677H19.2711V23.7133H20.9109V26.7677ZM20.0215 21.5124C19.0029 21.5124 18.177 20.5739 18.177 19.4166C18.177 18.2592 19.0029 17.3207 20.0215 17.3207C21.04 17.3207 21.866 18.2592 21.866 19.4166C21.866 20.5739 21.04 21.5124 20.0215 21.5124ZM24.2415 37.9745H22.7408V34.9201H24.2415V37.9745ZM24.2415 31.8111H22.7408V28.7567H24.2415V31.8111ZM24.2415 26.7677H22.7408V23.7133H24.2415V26.7677Z" fill="#FCFCFC"/>
<path fill-rule="evenodd" clip-rule="evenodd" d="M2.79199 26.1825C2.79199 25.6005 3.20716 25.1285 3.71959 25.1285H8.2407C8.75313 25.1285 9.16831 25.6005 9.16831 26.1825V26.2233C9.16831 26.8055 8.75287 27.2773 8.2407 27.2773H3.71959C3.20742 27.2773 2.79199 26.8055 2.79199 26.2233V26.1825Z" fill="#FCFCFC"/>
<path fill-rule="evenodd" clip-rule="evenodd" d="M4.02009 15.0435C4.27624 14.5393 4.84355 14.3666 5.28721 14.6577L9.20261 17.2263C9.64627 17.5173 9.79828 18.1619 9.54213 18.6661L9.52418 18.7014C9.26803 19.2055 8.70071 19.3782 8.25705 19.0872L4.34166 16.5186C3.89799 16.2275 3.74598 15.5829 4.00213 15.0788L4.02009 15.0435Z" fill="#FCFCFC"/>
<path fill-rule="evenodd" clip-rule="evenodd" d="M9.96536 6.63175C10.3901 6.30624 10.9666 6.43358 11.2531 6.91617L13.7813 11.1751C14.0677 11.6577 13.9557 12.3128 13.5309 12.6383L13.5012 12.6611C13.0765 12.9866 12.4999 12.8593 12.2134 12.3767L9.68528 8.11777C9.3988 7.63517 9.51087 6.98008 9.93559 6.65457L9.96536 6.63175Z" fill="#FCFCFC"/>
<path fill-rule="evenodd" clip-rule="evenodd" d="M36.1079 25.863C36.1079 26.4451 35.6926 26.917 35.1803 26.917H30.6592C30.1466 26.917 29.7316 26.4448 29.7316 25.863V25.8222C29.7316 25.2401 30.1469 24.7682 30.6592 24.7682H35.1803C35.6923 24.7682 36.1079 25.2398 36.1079 25.8222V25.863Z" fill="#FCFCFC"/>
<path fill-rule="evenodd" clip-rule="evenodd" d="M34.898 14.7181C35.1542 15.2224 35.002 15.8669 34.5585 16.1579L30.6431 18.7265C30.1995 19.0175 29.6322 18.845 29.376 18.3407L29.358 18.3054C29.1018 17.8011 29.254 17.1566 29.6975 16.8656L33.6129 14.297C34.0565 14.006 34.6238 14.1785 34.8801 14.6828L34.898 14.7181Z" fill="#FCFCFC"/>
<path fill-rule="evenodd" clip-rule="evenodd" d="M28.9649 6.29464C29.3895 6.62007 29.5017 7.27513 29.2152 7.75784L26.687 12.0168C26.4005 12.4995 25.8239 12.6266 25.3993 12.3012L25.3695 12.2784C24.9449 11.9529 24.8327 11.2979 25.1192 10.8152L27.6474 6.55624C27.9339 6.07353 28.5105 5.9464 28.9351 6.27182L28.9649 6.29464Z" fill="#FCFCFC"/>
<path fill-rule="evenodd" clip-rule="evenodd" d="M20.0182 2.82599C20.5305 2.82599 20.9458 3.29788 20.9458 3.87999V9.01717C20.9458 9.59913 20.5306 10.0712 20.0182 10.0712H19.9823C19.4699 10.0712 19.0547 9.59913 19.0547 9.01717V3.87999C19.0547 3.29788 19.47 2.82599 19.9823 2.82599H20.0182Z" fill="#FCFCFC"/>
</g>
<defs>
<clipPath id="clip0_36_1156">
<rect width="40" height="40" fill="white"/>
</clipPath>
</defs>
</svg>
