<svg width="24" height="24" viewBox="0 0 24 24" fill="none" xmlns="http://www.w3.org/2000/svg">
<path d="M16.0007 6.99956C16.0007 6.44727 16.4484 5.99956 17.0007 5.99956C17.553 5.99956 18.0007 6.44727 18.0007 6.99956C18.0007 7.55184 17.553 7.99956 17.0007 7.99956C16.4484 7.99956 16.0007 7.55184 16.0007 6.99956Z" fill="#121212"/>
<path fill-rule="evenodd" clip-rule="evenodd" d="M12.0007 7.24956C9.37732 7.24956 7.25067 9.3762 7.25067 11.9996C7.25067 14.6229 9.37732 16.7496 12.0007 16.7496C14.624 16.7496 16.7507 14.6229 16.7507 11.9996C16.7507 9.3762 14.624 7.24956 12.0007 7.24956ZM8.75067 11.9996C8.75067 10.2046 10.2057 8.74956 12.0007 8.74956C13.7956 8.74956 15.2507 10.2046 15.2507 11.9996C15.2507 13.7945 13.7956 15.2496 12.0007 15.2496C10.2057 15.2496 8.75067 13.7945 8.75067 11.9996Z" fill="#121212"/>
<path fill-rule="evenodd" clip-rule="evenodd" d="M17.2589 2.83257C13.7924 2.44513 10.209 2.44513 6.74244 2.83257C4.73038 3.05745 3.10605 4.64246 2.8695 6.66499C2.45496 10.2093 2.45496 13.7898 2.8695 17.3341C3.10605 19.3567 4.73038 20.9417 6.74244 21.1665C10.209 21.554 13.7924 21.554 17.2589 21.1665C19.271 20.9417 20.8953 19.3567 21.1319 17.3341C21.5464 13.7898 21.5464 10.2093 21.1319 6.66499C20.8953 4.64246 19.271 3.05745 17.2589 2.83257ZM6.90905 4.32329C10.2649 3.94823 13.7365 3.94823 17.0923 4.32329C18.4224 4.47195 19.4879 5.52156 19.642 6.83924C20.043 10.2678 20.043 13.7313 19.642 17.1599C19.4879 18.4775 18.4224 19.5272 17.0923 19.6758C13.7365 20.0509 10.2649 20.0509 6.90905 19.6758C5.57894 19.5272 4.51346 18.4775 4.35934 17.1599C3.95834 13.7313 3.95834 10.2678 4.35934 6.83924C4.51346 5.52156 5.57894 4.47195 6.90905 4.32329Z" fill="#121212"/>
</svg>
