<svg width="23" height="20" viewBox="0 0 23 20" fill="none" xmlns="http://www.w3.org/2000/svg">
<path d="M22.603 10.9631L14.5042 19.1055C14.2495 19.3583 13.906 19.5 13.5481 19.5C13.1902 19.5 12.8467 19.3583 12.592 19.1055C12.4661 18.9794 12.3663 18.8296 12.2982 18.6647C12.23 18.4997 12.195 18.3229 12.195 18.1442C12.195 17.9656 12.23 17.7888 12.2982 17.6238C12.3663 17.4589 12.4661 17.3091 12.592 17.183L18.3849 11.3589H1.8498C1.49181 11.3589 1.14848 11.2159 0.895348 10.9614C0.642211 10.7069 0.5 10.3618 0.5 10.0018C0.5 9.64192 0.642211 9.29674 0.895348 9.04224C1.14848 8.78774 1.49181 8.64477 1.8498 8.64477H18.3849L12.592 2.82068C12.3384 2.56574 12.1959 2.21996 12.1959 1.85942C12.1959 1.6809 12.2309 1.50413 12.2989 1.33919C12.3668 1.17426 12.4664 1.0244 12.592 0.898166C12.7175 0.771932 12.8666 0.671797 13.0306 0.60348C13.1947 0.535163 13.3705 0.5 13.5481 0.5C13.9067 0.5 14.2506 0.643225 14.5042 0.898166L22.603 9.04058C22.7288 9.16665 22.8287 9.31646 22.8968 9.48142C22.9649 9.64637 23 9.82323 23 10.0018C23 10.1804 22.9649 10.3573 22.8968 10.5223C22.8287 10.6872 22.7288 10.837 22.603 10.9631Z" fill="black"/>
</svg>
