<svg width="48" height="48" viewBox="0 0 48 48" fill="none" xmlns="http://www.w3.org/2000/svg">
<path d="M24 27.4068L12.076 39.3308C11.6299 39.7769 11.0621 40 10.3726 40C9.68314 40 9.11533 39.7769 8.6692 39.3308C8.22307 38.8847 8 38.3169 8 37.6274C8 36.9379 8.22307 36.3701 8.6692 35.924L20.5932 24L8.6692 12.076C8.22307 11.6299 8 11.0621 8 10.3726C8 9.68314 8.22307 9.11533 8.6692 8.6692C9.11533 8.22307 9.68314 8 10.3726 8C11.0621 8 11.6299 8.22307 12.076 8.6692L24 20.5932L35.924 8.6692C36.3701 8.22307 36.9379 8 37.6274 8C38.3169 8 38.8847 8.22307 39.3308 8.6692C39.7769 9.11533 40 9.68314 40 10.3726C40 11.0621 39.7769 11.6299 39.3308 12.076L27.4068 24L39.3308 35.924C39.7769 36.3701 40 36.9379 40 37.6274C40 38.3169 39.7769 38.8847 39.3308 39.3308C38.8847 39.7769 38.3169 40 37.6274 40C36.9379 40 36.3701 39.7769 35.924 39.3308L24 27.4068Z" fill="white"/>
</svg>
