<svg width="48" height="48" viewBox="0 0 48 48" fill="none" xmlns="http://www.w3.org/2000/svg">
<g clip-path="url(#clip0_17_86)">
<path fill-rule="evenodd" clip-rule="evenodd" d="M10.2294 10.7337H2.23881C1.00227 10.7337 0 11.736 0 12.9726V44.923C0 46.1592 1.00227 47.1618 2.23881 47.1618H45.417C46.6535 47.1618 47.6558 46.1592 47.6558 44.923V12.9726C47.6558 11.736 46.6535 10.7337 45.417 10.7337H37.426C35.6264 4.93434 30.216 0.716431 23.8277 0.716431C17.4398 0.716431 12.0294 4.93434 10.2294 10.7337ZM35.6053 15.2114H43.1781V42.6842H4.47761V15.2114H11.9767L12.6387 15.2131C16.0739 15.2196 32.0869 15.2371 35.1636 15.2189C35.3413 15.2178 35.4892 15.2149 35.6053 15.2114ZM15.0276 10.7337C16.6016 7.45721 19.9526 5.19404 23.8277 5.19404C27.7032 5.19404 31.0546 7.45757 32.6285 10.7341L15.0276 10.7337Z" fill="black"/>
</g>
<defs>
<clipPath id="clip0_17_86">
<rect width="48" height="48" fill="white"/>
</clipPath>
</defs>
</svg>
