<svg width="48" height="48" viewBox="0 0 48 48" fill="none" xmlns="http://www.w3.org/2000/svg">
<g clip-path="url(#clip0_17_88)">
<path fill-rule="evenodd" clip-rule="evenodd" d="M0.408628 44.2124C-0.0757353 44.9069 -0.133917 45.8135 0.257719 46.564C0.649356 47.3149 1.42572 47.7858 2.27263 47.7858H45.5752C46.4217 47.7858 47.1984 47.3149 47.5901 46.564C47.9817 45.8135 47.9235 44.9069 47.4388 44.2124C41.4966 35.6967 33.1246 30.4949 23.9239 30.4949C14.7232 30.4949 6.35081 35.6967 0.408628 44.2124ZM6.98863 43.2404C11.6632 38.1335 17.5224 35.0404 23.9239 35.0404C30.3254 35.0404 36.1843 38.1335 40.8592 43.2404H6.98863ZM23.837 0C16.0301 0 9.6919 6.33818 9.6919 14.1451C9.6919 21.9516 16.0301 28.2898 23.837 28.2898C31.6435 28.2898 37.9817 21.9516 37.9817 14.1451C37.9817 6.33818 31.6435 0 23.837 0V0ZM23.837 4.54545C29.1348 4.54545 33.4363 8.84691 33.4363 14.1451C33.4363 19.4429 29.1348 23.7444 23.837 23.7444C18.5388 23.7444 14.2374 19.4429 14.2374 14.1451C14.2374 8.84691 18.5388 4.54545 23.837 4.54545Z" fill="black"/>
</g>
<defs>
<clipPath id="clip0_17_88">
<rect width="48" height="48" fill="white"/>
</clipPath>
</defs>
</svg>
