<svg width="48" height="48" viewBox="0 0 48 48" fill="none" xmlns="http://www.w3.org/2000/svg">
<g clip-path="url(#clip0_17_87)">
<path fill-rule="evenodd" clip-rule="evenodd" d="M35.0213 39.2708L42.7675 46.927C43.8889 48.0356 45.6992 48.0251 46.8078 46.9033C47.9163 45.7819 47.9058 43.9711 46.7845 42.863L39.0592 35.2274C41.8711 31.5588 43.5419 26.9727 43.5419 21.9995C43.5419 9.98394 33.787 0.228516 21.771 0.228516C9.75543 0.228516 0 9.98394 0 21.9995C0 34.0155 9.75543 43.7705 21.771 43.7705C26.7552 43.7705 31.3504 42.0923 35.0213 39.2708ZM21.771 5.9428C30.6331 5.9428 37.8277 13.1378 37.8277 21.9995C37.8277 30.8617 30.6331 38.0562 21.771 38.0562C12.9093 38.0562 5.71429 30.8617 5.71429 21.9995C5.71429 13.1378 12.9093 5.9428 21.771 5.9428Z" fill="black"/>
</g>
<defs>
<clipPath id="clip0_17_87">
<rect width="48" height="48" fill="white"/>
</clipPath>
</defs>
</svg>
